/* XPM */
static const char * pause_xpm[] = {
"16 16 31 1",
" 	c None",
".	c #265499",
"+	c #245398",
"@	c #255599",
"#	c #AAC5E2",
"$	c #729FCF",
"%	c #A9C5E1",
"&	c #A4C1E0",
"*	c #719ECF",
"=	c #9DBDDD",
"-	c #6C9BCC",
";	c #96B7DA",
">	c #6897CA",
",	c #8EB2D7",
"'	c #6394C8",
")	c #86ADD3",
"!	c #5E91C5",
"~	c #7EA6D0",
"{	c #5A8DC3",
"]	c #76A1CC",
"^	c #558AC1",
"/	c #6D9AC9",
"(	c #5086BE",
"_	c #6495C5",
":	c #4C83BC",
"<	c #5B8EC2",
"[	c #477FBA",
"}	c #5085BA",
"|	c #5085BB",
"1	c #255399",
"2	c #245598",
".+++++@  .+++++@",
"+#####+  +#####+",
"+#$$$#+  +#$$$#+",
"+%$$$%+  +%$$$%+",
"+&***&+  +&***&+",
"+=---=+  +=---=+",
"+;>>>;+  +;>>>;+",
"+,''',+  +,''',+",
"+)!!!)+  +)!!!)+",
"+~{{{~+  +~{{{~+",
"+]^^^]+  +]^^^]+",
"+/(((/+  +/(((/+",
"+_:::_+  +_:::_+",
"+<[[[<+  +<[[[<+",
"+}|||}+  +}|||}+",
"1+++++2  1+++++2"};
