/* XPM */
static const char * pause_disabled_xpm[] = {
"16 16 15 1",
" 	c None",
".	c #000000",
"+	c #383838",
"@	c #3B3B3B",
"#	c #3E3E3E",
"$	c #424242",
"%	c #454545",
"&	c #474747",
"*	c #4B4B4B",
"=	c #4E4E4E",
"-	c #525252",
";	c #555555",
">	c #585858",
",	c #5C5C5C",
"'	c #FFFFFF",
"                ",
"   ....  ....   ",
"   ++++  ++++   ",
"   @@@@  @@@@   ",
"   ####  ####   ",
"   $$$$  $$$$   ",
"   %%%%  %%%%   ",
"   &&&&  &&&&   ",
"   ****  ****   ",
"   ====  ====   ",
"   ----  ----   ",
"   ;;;;  ;;;;   ",
"   >>>>  >>>>   ",
"   ,,,,  ,,,,   ",
"   ''''  ''''   ",
"                "};
