/* XPM */
static const char * play_disabled_xpm[] = {
"16 16 40 1",
" 	c None",
".	c #131313",
"+	c #060606",
"@	c #3C3C3C",
"#	c #303030",
"$	c #161616",
"%	c #0A0A0A",
"&	c #3F3F3F",
"*	c #313131",
"=	c #0F0F0F",
"-	c #434343",
";	c #414141",
">	c #464646",
",	c #444444",
"'	c #2F2F2F",
")	c #181818",
"!	c #171717",
"~	c #4A4A4A",
"{	c #1C1C1C",
"]	c #4D4D4D",
"^	c #666666",
"/	c #B8B8B8",
"(	c #505050",
"_	c #606060",
":	c #B4B4B4",
"<	c #FDFDFD",
"[	c #FFFFFF",
"}	c #545454",
"|	c #5E5E5E",
"1	c #AAAAAA",
"2	c #FAFAFA",
"3	c #575757",
"4	c #5B5B5B",
"5	c #979797",
"6	c #EFEFEF",
"7	c #5C5C5C",
"8	c #8E8E8E",
"9	c #E6E6E6",
"0	c #808080",
"a	c #DADADA",
"                ",
"                ",
"  .+            ",
"  @#$%          ",
"  &&&*$=        ",
"  ----;*$.      ",
"  >>>>>>,')!    ",
"  ~~~~~~~~>#{   ",
"  ]]]]]]]]]^/   ",
"  (((((((_:<[   ",
"  }}}}}|12[     ",
"  333456[       ",
"  4789[         ",
"  0a[           ",
"  [             ",
"                "};
