/* XPM */
static const char * play_xpm[] = {
"16 16 90 1",
" 	c None",
".	c #578A22",
"+	c #578C23",
"@	c #548820",
"#	c #92B652",
"$	c #5A8B23",
"%	c #588B22",
"&	c #E3EF95",
"*	c #D6E68A",
"=	c #91B54E",
"-	c #598C22",
";	c #E2EF92",
">	c #DAEA71",
",	c #E1EE8B",
"'	c #D1E285",
")	c #87AD47",
"!	c #598C23",
"~	c #E1EE8E",
"{	c #D7E866",
"]	c #DAEA73",
"^	c #E2EE8F",
"/	c #CADD80",
"(	c #78A13C",
"_	c #5A8D23",
":	c #DBE985",
"<	c #D0E260",
"[	c #D0E261",
"}	c #D6E674",
"|	c #DEEB8F",
"1	c #C2D678",
"2	c #6E9A34",
"3	c #5B8C24",
"4	c #D4E47D",
"5	c #C9DD5B",
"6	c #CADD5D",
"7	c #D1E273",
"8	c #D9E78D",
"9	c #B6CE6F",
"0	c #64932E",
"a	c #5A8C23",
"b	c #CEDE74",
"c	c #C3D756",
"d	c #C5D85B",
"e	c #CEDF76",
"f	c #D2E18A",
"g	c #9FBD5C",
"h	c #5C8D25",
"i	c #C7D96B",
"j	c #BCD250",
"k	c #BED354",
"l	c #C8DA6F",
"m	c #CDDD83",
"n	c #9DBB5B",
"o	c #5C8E26",
"p	c #5A8D22",
"q	c #BFD362",
"r	c #B5CD4B",
"s	c #B6CE4F",
"t	c #C0D466",
"u	c #C5D876",
"v	c #99B955",
"w	c #5B8C22",
"x	c #B7CD59",
"y	c #AFC746",
"z	c #B0C747",
"A	c #BDD169",
"B	c #9BB952",
"C	c #5F9027",
"D	c #5B8D21",
"E	c #AFC74F",
"F	c #A8C240",
"G	c #ACC54A",
"H	c #B2CA59",
"I	c #98B74B",
"J	c #63922A",
"K	c #5A8B22",
"L	c #A6BF45",
"M	c #A3BD3F",
"N	c #A8C149",
"O	c #96B543",
"P	c #66942B",
"Q	c #588C22",
"R	c #9EB93C",
"S	c #91B038",
"T	c #689629",
"U	c #588A21",
"V	c #6A9725",
"W	c #568920",
"X	c #558820",
"Y	c #558921",
".+              ",
"@#$%            ",
"@&*=-           ",
"@;>,')!         ",
"@~{{]^/(_       ",
"@:<<<[}|123     ",
"@45555567890a   ",
"@bcccccccdefgh_ ",
"@ijjjjjjjklmnop ",
"@qrrrrrstuvow   ",
"@xyyyzxABCD     ",
"@EFFGHIJK       ",
"@LMNOPQ         ",
"@RSTU           ",
"@VW             ",
"XY              "};
