/* XPM */
static const char * reset_xpm[] = {
"16 16 146 2",
"  	c None",
". 	c #D23C2D",
"+ 	c #D03629",
"@ 	c #CC372D",
"# 	c #F0A68D",
"$ 	c #F8C5AA",
"% 	c #EFA48B",
"& 	c #CB382E",
"* 	c #C5312A",
"= 	c #F6BAA2",
"- 	c #F1956F",
"; 	c #F1956E",
"> 	c #ED8967",
", 	c #D55D5F",
"' 	c #D55F60",
") 	c #EB8665",
"! 	c #F6BAA1",
"~ 	c #C4312A",
"{ 	c #BF2F2B",
"] 	c #F3B099",
"^ 	c #EE8A68",
"/ 	c #EE8968",
"( 	c #DA5A4D",
"_ 	c #D76C70",
": 	c #D14442",
"< 	c #F3DBDC",
"[ 	c #F5E4E5",
"} 	c #CE3E3E",
"| 	c #D86E73",
"1 	c #DC6051",
"2 	c #BA2C2C",
"3 	c #F2A490",
"4 	c #EC7F62",
"5 	c #D6514D",
"6 	c #EBBEC0",
"7 	c #FAFAFA",
"8 	c #CF4D53",
"9 	c #F4E1E2",
"0 	c #F6EAEA",
"a 	c #CD454C",
"b 	c #EABBBE",
"c 	c #D9584F",
"d 	c #B92C2C",
"e 	c #B42A2D",
"f 	c #EF9886",
"g 	c #DE5C4E",
"h 	c #E7ABAE",
"i 	c #F9F7F8",
"j 	c #DF8A8F",
"k 	c #D1413E",
"l 	c #CF3B3B",
"m 	c #DD8388",
"n 	c #E16352",
"o 	c #AE282E",
"p 	c #EC8B7C",
"q 	c #D45152",
"r 	c #FAF9F9",
"s 	c #E39EA1",
"t 	c #DA5047",
"u 	c #D94E46",
"v 	c #D74A44",
"w 	c #D74B44",
"x 	c #E39B9F",
"y 	c #D65B5B",
"z 	c #A9262E",
"A 	c #E87E72",
"B 	c #D87074",
"C 	c #D45B60",
"D 	c #E35E4F",
"E 	c #DB4F46",
"F 	c #E09296",
"G 	c #E2999D",
"H 	c #DB4D45",
"I 	c #E25E4F",
"J 	c #CF4D52",
"K 	c #DC7D80",
"L 	c #A8252E",
"M 	c #A3232F",
"N 	c #E37067",
"O 	c #D86E72",
"P 	c #D4595D",
"Q 	c #DE5449",
"R 	c #D84943",
"S 	c #D84842",
"T 	c #CE444A",
"U 	c #DD8386",
"V 	c #9E2130",
"W 	c #DE625C",
"X 	c #D14E51",
"Y 	c #E08F93",
"Z 	c #D4413E",
"` 	c #D94A43",
" .	c #D9757A",
"..	c #D66265",
"+.	c #9D2130",
"@.	c #981F31",
"#.	c #D85351",
"$.	c #CF3638",
"%.	c #ECC2C4",
"&.	c #F6ECED",
"*.	c #D14F54",
"=.	c #D03A39",
"-.	c #D4403D",
";.	c #D03939",
">.	c #CD4047",
",.	c #F5E2E3",
"'.	c #F1D4D5",
").	c #CE3739",
"!.	c #921C31",
"~.	c #D14445",
"{.	c #CE3637",
"].	c #CF494F",
"^.	c #F5E7E7",
"/.	c #F7EDEE",
"(.	c #DF8D91",
"_.	c #D35C61",
":.	c #D45B61",
"<.	c #DE888C",
"[.	c #F4E5E6",
"}.	c #F7EEEF",
"|.	c #D1545A",
"1.	c #8D1A32",
"2.	c #CB3439",
"3.	c #C92C31",
"4.	c #C92B31",
"5.	c #CD474E",
"6.	c #EBC0C2",
"7.	c #EDC7C9",
"8.	c #D05158",
"9.	c #C82B31",
"0.	c #8C1A32",
"a.	c #871833",
"b.	c #BF2633",
"c.	c #BE2431",
"d.	c #C12530",
"e.	c #CC474F",
"f.	c #D76F74",
"g.	c #CD4850",
"h.	c #C22530",
"i.	c #831733",
"j.	c #A21C38",
"k.	c #AB1E39",
"l.	c #A01C38",
"m.	c #831634",
"n.	c #7E1335",
"o.	c #7C1335",
"  . + + + + + + + + + + + + .   ",
"@ # $ $ $ $ $ $ $ $ $ $ $ $ % & ",
"* = - - ; ; > , ' ) ; ; ; ; ! ~ ",
"{ ] ^ / ( _ : < [ } | 1 ^ ^ ] { ",
"2 3 4 5 6 7 8 9 0 a 7 b c 4 3 d ",
"e f g h i j k 9 0 l m i h n f e ",
"o p q r s t u 9 0 v w x r y p o ",
"z A B 7 C D E F G H I J 7 K A L ",
"M N O 7 P Q Q R S Q Q T 7 U N M ",
"V W X 7 Y Z ` ` ` ` Z  .7 ..W +.",
"@.#.$.%.&.*.=.-.-.;.>.,.'.).#.@.",
"!.~.{.].^./.(._.:.<.[.}.|.{.~.!.",
"1.2.3.4.5.6.7 7 7 7 7.8.9.3.2.0.",
"a.b.c.c.c.d.e.f.f.g.h.c.c.c.b.a.",
"i.j.k.k.k.k.k.k.k.k.k.k.k.k.l.m.",
"  n.o.o.o.o.o.o.o.o.o.o.o.o.n.  "};
