/* XPM */
static const char * reset_disabled_xpm[] = {
"16 16 104 2",
"  	c None",
". 	c #595959",
"+ 	c #545454",
"@ 	c #555555",
"# 	c #B3B3B3",
"$ 	c #CCCCCC",
"% 	c #B1B1B1",
"& 	c #565656",
"* 	c #4F4F4F",
"= 	c #C4C4C4",
"- 	c #A5A5A5",
"; 	c #A4A4A4",
"> 	c #9A9A9A",
", 	c #757575",
"' 	c #767676",
") 	c #979797",
"! 	c #4C4C4C",
"~ 	c #BBBBBB",
"{ 	c #9B9B9B",
"] 	c #737373",
"^ 	c #828282",
"/ 	c #606060",
"( 	c #DEDEDE",
"_ 	c #E7E7E7",
": 	c #5B5B5B",
"< 	c #838383",
"[ 	c #777777",
"} 	c #494949",
"| 	c #B2B2B2",
"1 	c #939393",
"2 	c #6B6B6B",
"3 	c #C5C5C5",
"4 	c #F9F9F9",
"5 	c #686868",
"6 	c #E3E3E3",
"7 	c #EBEBEB",
"8 	c #616161",
"9 	c #C3C3C3",
"0 	c #717171",
"a 	c #474747",
"b 	c #A7A7A7",
"c 	c #B7B7B7",
"d 	c #F5F5F5",
"e 	c #5E5E5E",
"f 	c #5A5A5A",
"g 	c #949494",
"h 	c #7A7A7A",
"i 	c #434343",
"j 	c #9D9D9D",
"k 	c #F8F8F8",
"l 	c #ACACAC",
"m 	c #6C6C6C",
"n 	c #6A6A6A",
"o 	c #656565",
"p 	c #666666",
"q 	c #A9A9A9",
"r 	c #747474",
"s 	c #414141",
"t 	c #858585",
"u 	c #787878",
"v 	c #A1A1A1",
"w 	c #A8A8A8",
"x 	c #696969",
"y 	c #909090",
"z 	c #404040",
"A 	c #3E3E3E",
"B 	c #878787",
"C 	c #727272",
"D 	c #707070",
"E 	c #646464",
"F 	c #3B3B3B",
"G 	c #7B7B7B",
"H 	c #9F9F9F",
"I 	c #5F5F5F",
"J 	c #898989",
"K 	c #393939",
"L 	c #6D6D6D",
"M 	c #CACACA",
"N 	c #EDEDED",
"O 	c #585858",
"P 	c #5D5D5D",
"Q 	c #E5E5E5",
"R 	c #D9D9D9",
"S 	c #363636",
"T 	c #E9E9E9",
"U 	c #EEEEEE",
"V 	c #E6E6E6",
"W 	c #EFEFEF",
"X 	c #6E6E6E",
"Y 	c #323232",
"Z 	c #4B4B4B",
"` 	c #626262",
" .	c #C8C8C8",
"..	c #CECECE",
"+.	c #303030",
"@.	c #464646",
"#.	c #444444",
"$.	c #848484",
"%.	c #636363",
"&.	c #2E2E2E",
"*.	c #3A3A3A",
"=.	c #3D3D3D",
"-.	c #2D2D2D",
";.	c #2A2A2A",
"  . + + + + + + + + + + + + .   ",
"@ # $ $ $ $ $ $ $ $ $ $ $ $ % & ",
"* = - - ; ; > , ' ) ; ; ; ; = * ",
"! ~ { > ] ^ / ( _ : < [ { { ~ ! ",
"} | 1 2 3 4 5 6 7 8 4 9 0 1 | } ",
"a b , c d { e 6 7 f g d c h b a ",
"i j 2 k l m n 6 7 o p q k r j i ",
"s 1 t 4 r u 2 v w x u 5 4 y 1 z ",
"A B < 4 C D D o E D D / 4 g B A ",
"F G 5 4 H I p p p p I J 4 h G F ",
"K L & M N n . e e O P Q R & L K ",
"S / + o T U j r , > V W X + / S ",
"Y + ! Z `  .4 4 4 4 ..2 Z ! + Y ",
"+.@.#.#.#.@.` $.$.%.@.#.#.#.@.+.",
"&.*.=.=.=.=.=.=.=.=.=.=.=.=.*.-.",
"  ;.;.;.;.;.;.;.;.;.;.;.;.;.;.  "};
