/* XPM */
static const char * stop_disabled_xpm[] = {
"16 16 44 1",
" 	c None",
".	c #3F3F3F",
"+	c #3E3E3E",
"@	c #3C3C3C",
"#	c #A2A2A2",
"$	c #A4A4A4",
"%	c #A7A7A7",
"&	c #AAAAAA",
"*	c #ABABAB",
"=	c #383838",
"-	c #949494",
";	c #616161",
">	c #636363",
",	c #646464",
"'	c #656565",
")	c #666666",
"!	c #363636",
"~	c #868686",
"{	c #545454",
"]	c #565656",
"^	c #333333",
"/	c #7B7B7B",
"(	c #505050",
"_	c #313131",
":	c #6E6E6E",
"<	c #4B4B4B",
"[	c #2E2E2E",
"}	c #626262",
"|	c #464646",
"1	c #474747",
"2	c #2C2C2C",
"3	c #575757",
"4	c #434343",
"5	c #2A2A2A",
"6	c #4F4F4F",
"7	c #282828",
"8	c #393939",
"9	c #232323",
"0	c #353535",
"a	c #212121",
"b	c #323232",
"c	c #1E1E1E",
"d	c #1D1D1D",
"e	c #1C1C1C",
"                ",
" .++++++++++++. ",
" @#$%&&**&&%$#@ ",
" =-;>,'))',>;-= ",
" !~{{]]]]]]{{~! ",
" ^/((((((((((/^ ",
" _:<<<<<<<<<<:_ ",
" [}|||1111|||}[ ",
" 23444444444432 ",
" 56..........65 ",
" 7|@888@@888@|7 ",
" 9.00!!!!!!00.9 ",
" a0__bbbbbb__0a ",
" c[[[[[[[[[[[[c ",
" deeeeeeeeeeeed ",
"                "};
