/* XPM */
static const char * stop_xpm[] = {
"16 16 69 1",
" 	c None",
".	c #DB3B28",
"+	c #DB3A27",
"@	c #D43728",
"#	c #F2AC9D",
"$	c #F2AF9F",
"%	c #F3B1A0",
"&	c #F4B3A1",
"*	c #F4B4A1",
"=	c #F4B5A2",
"-	c #CC3429",
";	c #EF9F93",
">	c #E76E5B",
",	c #E8705A",
"'	c #E8725B",
")	c #E8745C",
"!	c #E9755D",
"~	c #C5312A",
"{	c #EC9188",
"]	c #E35F50",
"^	c #E46051",
"/	c #E46252",
"(	c #E46352",
"_	c #E56353",
":	c #BE2E2B",
"<	c #E8877F",
"[	c #E0584C",
"}	c #E1594C",
"|	c #B62B2C",
"1	c #E57C76",
"2	c #DC5148",
"3	c #DD5148",
"4	c #DD5248",
"5	c #AF282D",
"6	c #E1716C",
"7	c #D94A44",
"8	c #D94B44",
"9	c #A7252F",
"0	c #DD6462",
"a	c #D54340",
"b	c #D5433F",
"c	c #D64340",
"d	c #D64440",
"e	c #A02230",
"f	c #D85757",
"g	c #D13D3C",
"h	c #D23C3B",
"i	c #D23D3C",
"j	c #981F31",
"k	c #D24A4D",
"l	c #CE3638",
"m	c #CE3537",
"n	c #CE3637",
"o	c #911C32",
"p	c #CE3D41",
"q	c #CA2E33",
"r	c #CB2F33",
"s	c #8A1933",
"t	c #C82F36",
"u	c #C7272F",
"v	c #C7282F",
"w	c #821634",
"x	c #B92334",
"y	c #BA2434",
"z	c #BB2434",
"A	c #BB2433",
"B	c #BC2433",
"C	c #7C1435",
"D	c #7B1335",
"                ",
" .++++++++++++. ",
" @#$%&*==*&%$#@ ",
" -;>,')!!)',>;- ",
" ~{]^/(__(/^]{~ ",
" :<[[[}}}}[[[<: ",
" |123344443321| ",
" 56777888877765 ",
" 90abcddddcba09 ",
" efghhiiiihhgfe ",
" jklmnnllnnmlkj ",
" opqqrrrrrrqqpo ",
" stuuvvvvvvuuts ",
" wxyzABBBBAzyxw ",
" CDDDDDDDDDDDDC ",
"                "};
